<svg version="1.1" viewBox="0.0 0.0 1000.0 300.0" fill="none" stroke="none" stroke-linecap="square" stroke-miterlimit="10" xmlns:xlink="http://www.w3.org/1999/xlink" xmlns="http://www.w3.org/2000/svg"><clipPath id="p.0"><path d="m0 0l1000.0 0l0 300.0l-1000.0 0l0 -300.0z" clip-rule="nonzero"/></clipPath><g clip-path="url(#p.0)"><path fill="#000000" fill-opacity="0.0" d="m0 0l1000.0 0l0 300.0l-1000.0 0z" fill-rule="evenodd"/><path fill="#f46d4c" d="m38.1328 84.26837l0 0c0 -18.151833 14.714966 -32.8668 32.866795 -32.8668l749.983 0c8.716797 0 17.0766 3.4627419 23.240356 9.626465c6.1636963 6.163719 9.626404 14.523521 9.626404 23.240334l0 131.46326c0 18.151825 -14.714966 32.86679 -32.86676 32.86679l-749.983 0l0 0c-18.151829 0 -32.866795 -14.714966 -32.866795 -32.86679z" fill-rule="evenodd"/><path stroke="#999999" stroke-width="12.0" stroke-linejoin="round" stroke-linecap="butt" d="m38.1328 84.26837l0 0c0 -18.151833 14.714966 -32.8668 32.866795 -32.8668l749.983 0c8.716797 0 17.0766 3.4627419 23.240356 9.626465c6.1636963 6.163719 9.626404 14.523521 9.626404 23.240334l0 131.46326c0 18.151825 -14.714966 32.86679 -32.86676 32.86679l-749.983 0l0 0c-18.151829 0 -32.866795 -14.714966 -32.866795 -32.86679z" fill-rule="evenodd"/><defs><linearGradient id="p.1" gradientUnits="userSpaceOnUse" gradientTransform="matrix(13.59136052781093 0.0 0.0 13.59136052781093 0.0 0.0)" spreadMethod="pad" x1="3.316845810045552" y1="4.240717742034451" x2="3.3167967773823164" y2="17.832078269756934"><stop offset="0.0" stop-color="#f46d4c"/><stop offset="1.0" stop-color="#e06666"/></linearGradient></defs><path fill="url(#p.1)" d="m45.08045 84.29537l0 0c0 -14.722572 11.935005 -26.657578 26.657581 -26.657578l132.44861 0c7.070038 0 13.850494 2.8085594 18.849762 7.807823c4.9992676 4.9992676 7.8078156 11.779724 7.8078156 18.849754l0 131.40924c0 14.72258 -11.934998 26.657578 -26.657578 26.657578l-132.44861 0c-14.722576 0 -26.657581 -11.934998 -26.657581 -26.657578z" fill-rule="evenodd"/><path fill="#ffffff" d="m94.24041 122.37664l0 0c0 -5.1749496 4.1951294 -9.370079 9.370079 -9.370079l39.527557 0l0 0c2.4851074 0 4.8684235 0.9872055 6.625656 2.7444305c1.7572174 1.7572327 2.7444305 4.1405487 2.7444305 6.6256485l0 0l0 0c0 5.1749496 -4.1951294 9.370079 -9.370087 9.370079l-39.527557 0c-5.1749496 0 -9.370079 -4.1951294 -9.370079 -9.370079z" fill-rule="evenodd"/><path fill="#ffffff" d="m119.48975 149.87796l0 0c0 -5.1749573 4.1951294 -9.370087 9.370079 -9.370087l39.527557 0l0 0c2.4851074 0 4.8684235 0.9871979 6.625641 2.7444305c1.7572327 1.7572327 2.7444458 4.1405487 2.7444458 6.625656l0 0l0 0c0 5.174942 -4.1951294 9.370071 -9.370087 9.370071l-39.527557 0c-5.1749496 0 -9.370079 -4.1951294 -9.370079 -9.370071z" fill-rule="evenodd"/><path fill="#ffffff" d="m93.7391 176.87796l0 0c0 -5.1749573 4.1951294 -9.370087 9.370079 -9.370087l39.527557 0l0 0c2.4851074 0 4.8684235 0.9871979 6.625641 2.7444305c1.7572327 1.7572327 2.7444458 4.1405487 2.7444458 6.625656l0 0l0 0c0 5.174942 -4.1951294 9.370071 -9.370087 9.370071l-39.527557 0c-5.1749496 0 -9.370079 -4.1951294 -9.370079 -9.370071z" fill-rule="evenodd"/><path fill="#ffffff" d="m158.99107 123.12467l0 0c0 -5.1749496 4.195114 -9.370079 9.370071 -9.370079l0.75590515 0l0 0c2.4851074 0 4.8684235 0.9872055 6.625641 2.7444305c1.7572327 1.7572327 2.7444458 4.1405487 2.7444458 6.6256485l0 0l0 0c0 5.1749496 -4.1951294 9.370079 -9.370087 9.370079l-0.75590515 0c-5.1749573 0 -9.370071 -4.1951294 -9.370071 -9.370079z" fill-rule="evenodd"/><path fill="#ffffff" d="m92.991066 149.87534l0 0c0 -5.1749573 4.1951294 -9.370087 9.370079 -9.370087l0.75590515 0l0 0c2.4850998 0 4.868416 0.9871979 6.6256485 2.7444305c1.7572327 1.7572327 2.7444305 4.1405487 2.7444305 6.625656l0 0l0 0c0 5.174942 -4.1951294 9.370071 -9.370079 9.370071l-0.75590515 0c-5.1749496 0 -9.370079 -4.1951294 -9.370079 -9.370071z" fill-rule="evenodd"/><path fill="#ffffff" d="m158.74173 177.62335l0 0c0 -5.174942 4.195114 -9.370071 9.370071 -9.370071l0.75590515 0l0 0c2.4851074 0 4.8684235 0.9871979 6.625641 2.7444305c1.7572327 1.7572327 2.7444458 4.1405487 2.7444458 6.625641l0 0l0 0c0 5.1749573 -4.1951294 9.370087 -9.370087 9.370087l-0.75590515 0c-5.1749573 0 -9.370071 -4.1951294 -9.370071 -9.370087z" fill-rule="evenodd"/><path fill="#d9d9d9" d="m5.991067 134.99219l0 0c0 -8.836586 7.163472 -16.000061 16.000065 -16.000061l30.015621 0l0 0c4.2434807 0 8.31316 1.6857147 11.313751 4.68631c3.000595 3.000595 4.68631 7.0702667 4.68631 11.313751l0 30.015625c0 8.836594 -7.163471 16.000061 -16.000061 16.000061l-30.015621 0l0 0c-8.836592 0 -16.000065 -7.1634674 -16.000065 -16.000061z" fill-rule="evenodd"/><path stroke="#999999" stroke-width="8.0" stroke-linejoin="round" stroke-linecap="butt" d="m5.991067 134.99219l0 0c0 -8.836586 7.163472 -16.000061 16.000065 -16.000061l30.015621 0l0 0c4.2434807 0 8.31316 1.6857147 11.313751 4.68631c3.000595 3.000595 4.68631 7.0702667 4.68631 11.313751l0 30.015625c0 8.836594 -7.163471 16.000061 -16.000061 16.000061l-30.015621 0l0 0c-8.836592 0 -16.000065 -7.1634674 -16.000065 -16.000061z" fill-rule="evenodd"/><path fill="#d9d9d9" d="m821.9911 134.99219l0 0c0 -8.836586 7.163452 -16.000061 16.000061 -16.000061l30.015625 0l0 0c4.243469 0 8.31311 1.6857147 11.313721 4.68631c3.0006104 3.000595 4.6863403 7.0702667 4.6863403 11.313751l0 30.015625c0 8.836594 -7.163513 16.000061 -16.000061 16.000061l-30.015625 0l0 0c-8.836609 0 -16.000061 -7.1634674 -16.000061 -16.000061z" fill-rule="evenodd"/><path stroke="#999999" stroke-width="8.0" stroke-linejoin="round" stroke-linecap="butt" d="m821.9911 134.99219l0 0c0 -8.836586 7.163452 -16.000061 16.000061 -16.000061l30.015625 0l0 0c4.243469 0 8.31311 1.6857147 11.313721 4.68631c3.0006104 3.000595 4.6863403 7.0702667 4.6863403 11.313751l0 30.015625c0 8.836594 -7.163513 16.000061 -16.000061 16.000061l-30.015625 0l0 0c-8.836609 0 -16.000061 -7.1634674 -16.000061 -16.000061z" fill-rule="evenodd"/><path fill="#434343" d="m340.1357 124.20474c-3.2399292 0 -6.1283875 0.7284851 -8.665314 2.185463c-2.5369568 1.4467926 -4.5695496 3.3622665 -6.0978394 5.7464066l0 -6.831497l-7.381592 0l0 48.691605l8.252716 0l0 -25.262787c0 -4.432068 0.4432068 -7.82489 1.3295898 -10.178467c0.8864136 -2.3535767 2.3128052 -4.141693 4.279175 -5.364334c1.9765625 -1.2226257 4.1263733 -1.8339539 6.449341 -1.8339539c3.056549 0 5.257263 0.9169769 6.602173 2.750946c1.3448792 1.8339539 2.0173035 4.5848846 2.0173035 8.252808l0 31.635788l8.252716 0l0 -28.288818c0 -5.0128174 1.1309204 -8.655258 3.3927612 -10.927338c2.2618713 -2.282257 5.1044617 -3.4233856 8.5278015 -3.4233856c1.89505 0 3.5455933 0.4432068 4.9516296 1.3296204c1.4060059 0.8864136 2.3739014 2.0581055 2.903717 3.515091c0.539978 1.4467926 0.80999756 3.8207397 0.80999756 7.121872l0 30.672958l8.206848 0l0 -33.423904c0 -5.5630035 -1.2990417 -9.6792145 -3.8971252 -12.348648c-2.598053 -2.6796188 -6.3117676 -4.0194244 -11.141144 -4.0194244c-6.174225 0 -11.186981 2.842636 -15.038239 8.527908c-0.9475403 -2.689804 -2.5776978 -4.783577 -4.890503 -6.281311c-2.3026123 -1.4977341 -5.257263 -2.2465973 -8.864014 -2.2465973z" fill-rule="evenodd"/><path fill="#434343" d="m396.16238 106.78213l0 9.582436l8.252686 0l0 -9.582436zm0 18.522987l0 51.16745c0 4.462631 -0.41262817 7.249237 -1.237915 8.359802c-0.82525635 1.1207428 -2.0784607 1.6811218 -3.759552 1.6811218c-0.9475403 0 -2.246582 -0.21395874 -3.8971252 -0.6418915l-1.5588379 7.0148926c2.0784607 0.5807648 4.2333374 0.8711395 6.46463 0.8711395c4.615387 0 7.9164734 -1.528305 9.903229 -4.5849c1.5588379 -2.3535767 2.3382568 -6.525833 2.3382568 -12.516769l0 -51.350845z" fill-rule="evenodd"/><path fill="#434343" d="m439.21396 124.20474c-3.2399597 0 -6.1283875 0.7284851 -8.665344 2.185463c-2.5369263 1.4467926 -4.5695496 3.3622665 -6.097809 5.7464066l0 -6.831497l-7.381592 0l0 48.691605l8.252716 0l0 -25.262787c0 -4.432068 0.44317627 -7.82489 1.3295898 -10.178467c0.8864136 -2.3535767 2.3128052 -4.141693 4.279175 -5.364334c1.9765625 -1.2226257 4.126343 -1.8339539 6.449341 -1.8339539c3.056549 0 5.257263 0.9169769 6.6021423 2.750946c1.3448792 1.8339539 2.017334 4.5848846 2.017334 8.252808l0 31.635788l8.252716 0l0 -28.288818c0 -5.0128174 1.1309204 -8.655258 3.3927612 -10.927338c2.2618408 -2.282257 5.1044617 -3.4233856 8.5278015 -3.4233856c1.89505 0 3.5455933 0.4432068 4.951599 1.3296204c1.4060364 0.8864136 2.373932 2.0581055 2.9037476 3.515091c0.539978 1.4467926 0.80996704 3.8207397 0.80996704 7.121872l0 30.672958l8.206848 0l0 -33.423904c0 -5.5630035 -1.2990112 -9.6792145 -3.8970947 -12.348648c-2.5980835 -2.6796188 -6.311798 -4.0194244 -11.141144 -4.0194244c-6.1742554 0 -11.186981 2.842636 -15.038269 8.527908c-0.94750977 -2.689804 -2.5776672 -4.783577 -4.8904724 -6.281311c-2.3026123 -1.4977341 -5.257263 -2.2465973 -8.864014 -2.2465973z" fill-rule="evenodd"/><path fill="#434343" d="m495.1031 106.78213l0 67.21459l8.252686 0l0 -67.21459z" fill-rule="evenodd"/><path fill="#434343" d="m512.93805 145.5245l0 8.298676l25.354126 0l0 -8.298676z" fill-rule="evenodd"/><path fill="#434343" d="m568.277 130.66945c3.5456543 0 6.59198 1.5435791 9.13916 4.6307373c2.557312 3.0871735 3.8359375 7.7332 3.8359375 13.938095c0 6.510544 -1.3092041 11.319595 -3.9276733 14.427139c-2.6082764 3.097351 -5.746338 4.6460266 -9.414185 4.6460266c-3.6067505 0 -6.678589 -1.4977264 -9.215515 -4.4931946c-2.5369263 -2.9954681 -3.80542 -7.6262207 -3.80542 -13.892242c0 -6.2660217 1.3499756 -11.039413 4.0499268 -14.32016c2.710144 -3.2909393 5.822754 -4.9364014 9.337769 -4.9364014zm0.77948 -6.4647064c-3.178833 0 -5.883911 0.62150574 -8.115173 1.8645248c-2.2313232 1.2328262 -4.2333374 3.0871658 -6.0061646 5.563011l0 -6.3271637l-7.519104 0l0 67.35214l8.252686 0l0 -23.703918c1.4060059 1.7728271 3.1992188 3.2399902 5.3795776 4.4014893c2.1904907 1.1615143 4.661194 1.7422638 7.4121094 1.7422638c3.7595825 0 7.3408203 -1.0596161 10.743774 -3.1788635c3.413208 -2.129425 6.0112305 -5.18602 7.7942505 -9.169785c1.7931519 -3.9939575 2.6897583 -8.482056 2.6897583 -13.464325c0 -4.6460266 -0.80999756 -8.91507 -2.4299316 -12.807144c-1.6199951 -3.9022522 -4.019409 -6.9231873 -7.198181 -9.062805c-3.178833 -2.139618 -6.8467407 -3.2094269 -11.003601 -3.2094269z" fill-rule="evenodd"/><path fill="#434343" d="m630.7224 149.55922l0 3.0260315c0 3.6373596 -0.44317627 6.3882904 -1.3295898 8.252823c-1.161499 2.4147034 -2.9801636 4.319977 -5.4559326 5.7158356c-2.47583 1.3856506 -5.3031616 2.078476 -8.481934 2.078476c-3.2094116 0 -5.649536 -0.73358154 -7.3204956 -2.2007446c-1.6607056 -1.4671631 -2.4910889 -3.3011322 -2.4910889 -5.501877c0 -1.4365997 0.38208008 -2.7407532 1.1462402 -3.912445c0.76416016 -1.1818848 1.8491821 -2.0784912 3.255249 -2.689804c1.4060059 -0.6113281 3.805359 -1.1615143 7.198181 -1.6505585c5.9908447 -0.8558502 10.483948 -1.8950958 13.47937 -3.1177368zm-10.499268 -25.354477c-4.187439 0 -7.8706055 0.5756607 -11.049438 1.7269745c-3.178833 1.1411285 -5.6087646 2.776413 -7.289856 4.905838c-1.6811523 2.1192474 -2.8884888 4.905838 -3.6220093 8.359802l8.069275 1.1003723c0.8864136 -3.4539642 2.251648 -5.8584747 4.095764 -7.2135773c1.8543091 -1.3652802 4.722412 -2.0479126 8.604248 -2.0479126c4.1569214 0 7.289856 0.93226624 9.398865 2.7967834c1.5588379 1.375473 2.3383179 3.744339 2.3383179 7.106598c0 0.3056488 -0.015319824 1.0239563 -0.045898438 2.154892c-3.1482544 1.1003723 -8.054016 2.0479279 -14.717285 2.842636c-3.2705078 0.39735413 -5.7157593 0.80999756 -7.3357544 1.2379303c-2.2006836 0.61131287 -4.182373 1.5130157 -5.9450073 2.7050781c-1.7523804 1.1920776 -3.173706 2.776413 -4.263855 4.7530212c-1.0800171 1.9664001 -1.6199951 4.141678 -1.6199951 6.525833c0 4.065277 1.4365845 7.4071503 4.3097534 10.025635c2.873169 2.6082916 6.984192 3.912445 12.333191 3.912445c3.2399292 0 6.271057 -0.53489685 9.093262 -1.6047058c2.8323975 -1.069809 5.7768555 -2.903778 8.833435 -5.501877c0.24450684 2.29245 0.79467773 4.29451 1.6505127 6.0062103l8.619507 0c-1.0392456 -1.8645172 -1.7371216 -3.8105621 -2.09375 -5.8381042c-0.3463745 -2.037735 -0.5195923 -6.892624 -0.5195923 -14.564682l0 -11.003754c0 -3.667923 -0.13757324 -6.204895 -0.4126587 -7.6109314c-0.48901367 -2.2618866 -1.3448486 -4.1315002 -2.567505 -5.608856c-1.2225952 -1.4875412 -3.1329346 -2.720375 -5.731018 -3.6984863c-2.5980835 -0.97811127 -5.975586 -1.4671631 -10.132507 -1.4671631z" fill-rule="evenodd"/><path fill="#434343" d="m669.7394 124.20474c-1.9256592 0 -3.6933594 0.55018616 -5.3031616 1.6505585c-1.5995483 1.10038 -3.3469238 3.3775482 -5.2420044 6.831497l0 -7.3816833l-7.427429 0l0 48.691605l8.252747 0l0 -25.49202c0 -3.4845276 0.4584961 -6.6939545 1.3754272 -9.628296c0.6113281 -1.9256439 1.6352539 -3.428482 3.0718384 -4.5084686c1.4365845 -1.0901947 3.0565796 -1.6352844 4.8599243 -1.6352844c2.017334 0 4.034668 0.5960388 6.052002 1.7881012l2.8425903 -7.656769c-2.873169 -1.7728271 -5.7005005 -2.6592407 -8.481934 -2.6592407z" fill-rule="evenodd"/><path fill="#434343" d="m699.1281 124.20474c-2.5369263 0 -4.9159546 0.33113098 -7.137024 0.99339294c-2.2109375 0.6520767 -3.958252 1.4518814 -5.2420044 2.3994293c-1.7116699 1.222641 -3.0667725 2.7611237 -4.0651855 4.6154633c-0.9883423 1.8441467 -1.4824829 3.8513184 -1.4824829 6.0214996c0 2.38414 0.60113525 4.564514 1.8034058 6.5411224c1.2124023 1.9664001 2.9852295 3.5099792 5.3184204 4.6307373c2.3433228 1.1105652 6.5410156 2.4299927 12.592957 3.9582977c4.493164 1.1309357 7.305176 2.063202 8.436096 2.7967834c1.6199951 1.069809 2.4299927 2.536972 2.4299927 4.4015045c0 2.0784912 -0.9169922 3.8920593 -2.7509155 5.44075c-1.8339233 1.5384827 -4.645935 2.307724 -8.436096 2.307724c-3.7595825 0 -6.6887817 -0.87112427 -8.787598 -2.613388c-2.088623 -1.7422638 -3.3621826 -4.2486725 -3.8206787 -7.519226l-8.161011 1.2837677c0.9169922 5.1656494 3.031067 9.062805 6.342346 11.691483c3.3214722 2.6286774 8.145752 3.9430084 14.472778 3.9430084c3.8207397 0 7.2440796 -0.66226196 10.27002 -1.9867859c3.026001 -1.3347168 5.338806 -3.2145233 6.9384155 -5.6394196c1.6098022 -2.435089 2.4146729 -5.0281067 2.4146729 -7.7790375c0 -2.8120728 -0.6571655 -5.1656647 -1.9714966 -7.0607452c-1.314331 -1.8950958 -3.1278687 -3.336792 -5.440674 -4.3250885c-2.3026123 -0.9984894 -6.372925 -2.277176 -12.2109375 -3.836029c-4.034607 -1.1003723 -6.4645996 -1.8033905 -7.289856 -2.1090546c-1.4365845 -0.5807495 -2.4910889 -1.314331 -3.1635132 -2.2007446c-0.67248535 -0.8558502 -1.008667 -1.8186798 -1.008667 -2.8884888c0 -1.6811371 0.8099365 -3.1483002 2.4299316 -4.4015045c1.6199951 -1.2532043 4.325012 -1.8798065 8.115173 -1.8798065c3.2093506 0 5.6902466 0.7030182 7.442688 2.1090546c1.7626343 1.4060364 2.8273315 3.362259 3.1940918 5.8686676l8.069336 -1.1003723c-0.5196533 -3.1483002 -1.4671631 -5.6598053 -2.8425903 -7.5345154c-1.3754883 -1.884903 -3.5099487 -3.3775406 -6.4035034 -4.4779205c-2.8833618 -1.1003723 -6.2353516 -1.6505585 -10.056091 -1.6505585z" fill-rule="evenodd"/><path fill="#434343" d="m750.15735 130.99039c4.187439 0 7.59552 1.5894318 10.224182 4.7682953c1.7116699 2.0479126 2.7508545 5.1197968 3.1176758 9.215637l-27.18805 0c0.27508545 -4.2486725 1.701477 -7.6414948 4.279175 -10.178467c2.5878296 -2.536972 5.7768555 -3.8054657 9.567017 -3.8054657zm-0.09173584 -6.7856445c-6.7244263 0 -12.195618 2.261879 -16.413696 6.7856445c-4.2180176 4.523758 -6.3270264 10.881485 -6.3270264 19.073166c0 7.9165955 2.083496 14.070541 6.2506104 18.461853c4.177307 4.381119 9.826843 6.571686 16.948608 6.571686c5.654663 0 10.300598 -1.3754578 13.937927 -4.126404c3.637268 -2.7509308 6.128357 -6.6175385 7.4732666 -11.5997925l-8.527832 -1.0545197c-1.2531738 3.4845123 -2.949524 6.0214996 -5.0891113 7.6109314c-2.1395874 1.5894318 -4.722412 2.38414 -7.748413 2.38414c-4.0651855 0 -7.457947 -1.4213104 -10.178284 -4.2639465c-2.720337 -2.842636 -4.2333374 -6.9384766 -4.5390015 -12.287537l36.31189 0c0.030517578 -0.97810364 0.045837402 -1.7116852 0.045837402 -2.2007446c0 -8.038849 -2.0631714 -14.274307 -6.189514 -18.706375c-4.126343 -4.432068 -9.444763 -6.648102 -15.955261 -6.648102z" fill-rule="evenodd"/><path fill="#000000" fill-opacity="0.0" d="m222.13979 57.924393l-0.3464508 184.25197" fill-rule="evenodd"/><path stroke="#e06666" stroke-width="16.0" stroke-linejoin="round" stroke-linecap="butt" d="m222.13979 57.924393l-0.3464508 184.25197" fill-rule="evenodd"/></g></svg>