<svg version="1.1" viewBox="0.0 0.0 1000.0 300.0" fill="none" stroke="none" stroke-linecap="square" stroke-miterlimit="10" xmlns:xlink="http://www.w3.org/1999/xlink" xmlns="http://www.w3.org/2000/svg"><clipPath id="p.0"><path d="m0 0l1000.0 0l0 300.0l-1000.0 0l0 -300.0z" clip-rule="nonzero"/></clipPath><g clip-path="url(#p.0)"><path fill="#000000" fill-opacity="0.0" d="m0 0l1000.0 0l0 300.0l-1000.0 0z" fill-rule="evenodd"/><path fill="#f46d4c" d="m40.593174 84.26837l0 0c0 -18.151833 14.71497 -32.8668 32.866802 -32.8668l852.7231 0c8.716858 0 17.07666 3.4627419 23.240356 9.626465c6.1636963 6.163719 9.626465 14.523521 9.626465 23.240334l0 131.46326c0 18.151825 -14.714966 32.86679 -32.86682 32.86679l-852.7231 0c-18.151833 0 -32.866802 -14.714966 -32.866802 -32.86679z" fill-rule="evenodd"/><path stroke="#999999" stroke-width="12.0" stroke-linejoin="round" stroke-linecap="butt" d="m40.593174 84.26837l0 0c0 -18.151833 14.71497 -32.8668 32.866802 -32.8668l852.7231 0c8.716858 0 17.07666 3.4627419 23.240356 9.626465c6.1636963 6.163719 9.626465 14.523521 9.626465 23.240334l0 131.46326c0 18.151825 -14.714966 32.86679 -32.86682 32.86679l-852.7231 0c-18.151833 0 -32.866802 -14.714966 -32.866802 -32.86679z" fill-rule="evenodd"/><defs><linearGradient id="p.1" gradientUnits="userSpaceOnUse" gradientTransform="matrix(13.416432510003121 0.0 0.0 13.416432510003121 0.0 0.0)" spreadMethod="pad" x1="3.611350747184769" y1="4.472078450137465" x2="3.611302221493146" y2="17.888510960052834"><stop offset="0.0" stop-color="#f46d4c"/><stop offset="1.0" stop-color="#e06666"/></linearGradient></defs><path fill="url(#p.1)" d="m48.451443 79.0008l0 0c0 -10.493851 8.50695 -19.000801 19.000797 -19.000801l144.99052 0c5.039337 0 9.872253 2.0018654 13.435593 5.5652084c3.5633545 3.5633392 5.565216 8.396263 5.565216 13.435593l0 141.99841c0 10.493851 -8.506958 19.000793 -19.000809 19.000793l-144.99052 0c-10.493847 0 -19.000797 -8.506943 -19.000797 -19.000793z" fill-rule="evenodd"/><path fill="#ffffff" d="m103.95276 122.374016l0 0c0 -5.1749496 4.195122 -9.370079 9.370079 -9.370079l39.52755 0l0 0c2.4851074 0 4.8684235 0.9872055 6.625656 2.7444305c1.7572327 1.7572327 2.7444305 4.1405487 2.7444305 6.6256485l0 0l0 0c0 5.1749496 -4.1951294 9.370079 -9.370087 9.370079l-39.52755 0c-5.1749573 0 -9.370079 -4.1951294 -9.370079 -9.370079z" fill-rule="evenodd"/><path fill="#ffffff" d="m129.2021 149.87534l0 0c0 -5.1749573 4.1951294 -9.370087 9.370071 -9.370087l39.527557 0l0 0c2.4851074 0 4.8684235 0.9871979 6.625656 2.7444305c1.7572327 1.7572327 2.7444305 4.1405487 2.7444305 6.625656l0 0l0 0c0 5.174942 -4.1951294 9.370071 -9.370087 9.370071l-39.527557 0c-5.174942 0 -9.370071 -4.1951294 -9.370071 -9.370071z" fill-rule="evenodd"/><path fill="#ffffff" d="m103.45145 176.87534l0 0c0 -5.1749573 4.195122 -9.370087 9.370079 -9.370087l39.52755 0l0 0c2.4851074 0 4.8684235 0.9871979 6.625656 2.7444305c1.7572327 1.7572327 2.7444305 4.1405487 2.7444305 6.625656l0 0l0 0c0 5.174942 -4.1951294 9.370071 -9.370087 9.370071l-39.52755 0c-5.1749573 0 -9.370079 -4.1951294 -9.370079 -9.370071z" fill-rule="evenodd"/><path fill="#ffffff" d="m168.70341 123.12205l0 0c0 -5.1749496 4.1951294 -9.370079 9.370071 -9.370079l0.75590515 0l0 0c2.4851074 0 4.8684235 0.9872055 6.625656 2.7444305c1.7572327 1.7572327 2.7444305 4.1405487 2.7444305 6.6256485l0 0l0 0c0 5.1749496 -4.1951294 9.370079 -9.370087 9.370079l-0.75590515 0c-5.174942 0 -9.370071 -4.1951294 -9.370071 -9.370079z" fill-rule="evenodd"/><path fill="#ffffff" d="m102.703415 149.8727l0 0c0 -5.174942 4.195122 -9.370071 9.370079 -9.370071l0.75590515 0l0 0c2.4850998 0 4.868416 0.9871979 6.625641 2.7444305c1.7572327 1.7572327 2.7444382 4.1405487 2.7444382 6.625641l0 0l0 0c0 5.1749573 -4.1951294 9.370087 -9.370079 9.370087l-0.75590515 0c-5.1749573 0 -9.370079 -4.1951294 -9.370079 -9.370087z" fill-rule="evenodd"/><path fill="#ffffff" d="m168.45407 177.62073l0 0c0 -5.174942 4.1951294 -9.370071 9.370071 -9.370071l0.75590515 0l0 0c2.4851074 0 4.8684235 0.9871979 6.625656 2.7444305c1.7572327 1.7572327 2.7444305 4.1405487 2.7444305 6.625641l0 0l0 0c0 5.1749573 -4.1951294 9.370087 -9.370087 9.370087l-0.75590515 0c-5.174942 0 -9.370071 -4.1951294 -9.370071 -9.370087z" fill-rule="evenodd"/><path fill="#d9d9d9" d="m9.703412 134.98956l0 0c0 -8.836586 7.163472 -16.000061 16.000065 -16.000061l30.015621 0l0 0c4.2434807 0 8.31316 1.6857147 11.313755 4.68631c3.000595 3.000595 4.68631 7.0702667 4.68631 11.313751l0 30.015625c0 8.836594 -7.163475 16.000061 -16.000065 16.000061l-30.015621 0l0 0c-8.836592 0 -16.000065 -7.1634674 -16.000065 -16.000061z" fill-rule="evenodd"/><path stroke="#999999" stroke-width="8.0" stroke-linejoin="round" stroke-linecap="butt" d="m9.703412 134.98956l0 0c0 -8.836586 7.163472 -16.000061 16.000065 -16.000061l30.015621 0l0 0c4.2434807 0 8.31316 1.6857147 11.313755 4.68631c3.000595 3.000595 4.68631 7.0702667 4.68631 11.313751l0 30.015625c0 8.836594 -7.163475 16.000061 -16.000065 16.000061l-30.015621 0l0 0c-8.836592 0 -16.000065 -7.1634674 -16.000065 -16.000061z" fill-rule="evenodd"/><path fill="#d9d9d9" d="m928.2798 134.98956l0 0c0 -8.836586 7.163452 -16.000061 16.000061 -16.000061l30.015625 0l0 0c4.243469 0 8.313171 1.6857147 11.313721 4.68631c3.0006104 3.000595 4.6863403 7.0702667 4.6863403 11.313751l0 30.015625c0 8.836594 -7.163452 16.000061 -16.000061 16.000061l-30.015625 0l0 0c-8.836609 0 -16.000061 -7.1634674 -16.000061 -16.000061z" fill-rule="evenodd"/><path stroke="#999999" stroke-width="8.0" stroke-linejoin="round" stroke-linecap="butt" d="m928.2798 134.98956l0 0c0 -8.836586 7.163452 -16.000061 16.000061 -16.000061l30.015625 0l0 0c4.243469 0 8.313171 1.6857147 11.313721 4.68631c3.0006104 3.000595 4.6863403 7.0702667 4.6863403 11.313751l0 30.015625c0 8.836594 -7.163452 16.000061 -16.000061 16.000061l-30.015625 0l0 0c-8.836609 0 -16.000061 -7.1634674 -16.000061 -16.000061z" fill-rule="evenodd"/><path fill="#000000" fill-opacity="0.0" d="m224.95276 59.5l0 181.51181" fill-rule="evenodd"/><path stroke="#e06666" stroke-width="16.0" stroke-linejoin="round" stroke-linecap="butt" d="m224.95276 59.5l0 181.51181" fill-rule="evenodd"/><path fill="#434343" d="m315.0974 130.42784c-3.2399597 0 -6.1283875 0.7284851 -8.665344 2.1854706c-2.5369263 1.4467773 -4.5695496 3.3622437 -6.097809 5.746399l0 -6.831497l-7.381592 0l0 48.691605l8.252686 0l0 -25.262787c0 -4.432068 0.4432068 -7.82489 1.3296204 -10.178467c0.88638306 -2.3535767 2.3128052 -4.141693 4.279175 -5.364334c1.976593 -1.222641 4.126343 -1.8339539 6.449341 -1.8339539c3.056549 0 5.257263 0.9169769 6.6021423 2.7509308c1.3448792 1.8339691 2.017334 4.5849 2.017334 8.252823l0 31.635788l8.252686 0l0 -28.288818c0 -5.0128174 1.1309204 -8.655258 3.3927917 -10.927338c2.2618408 -2.282257 5.104431 -3.4233856 8.527771 -3.4233856c1.8950806 0 3.5456238 0.4432068 4.9516296 1.3296204c1.4060059 0.8864136 2.373932 2.0581055 2.903717 3.515091c0.54000854 1.4467926 0.80999756 3.8207397 0.80999756 7.121872l0 30.672958l8.206848 0l0 -33.423904c0 -5.5630035 -1.2990417 -9.6792145 -3.8970947 -12.348648c-2.5980835 -2.6796265 -6.311798 -4.0194244 -11.141144 -4.0194244c-6.1742554 0 -11.187012 2.842636 -15.038269 8.527908c-0.94750977 -2.689804 -2.5776672 -4.7835846 -4.8904724 -6.281311c-2.3026123 -1.4977417 -5.2572937 -2.2465973 -8.864014 -2.2465973z" fill-rule="evenodd"/><path fill="#434343" d="m371.12405 113.005226l0 9.582436l8.252716 0l0 -9.582436zm0 18.522987l0 51.16745c0 4.462631 -0.41262817 7.249237 -1.2378845 8.359787c-0.82528687 1.120758 -2.0784607 1.6811371 -3.7595825 1.6811371c-0.94750977 0 -2.2465515 -0.21395874 -3.8970947 -0.6418915l-1.5588379 7.0148926c2.0784607 0.5807648 4.2333374 0.8711395 6.4645996 0.8711395c4.6154175 0 7.9164734 -1.528305 9.903259 -4.5849c1.5588379 -2.3535767 2.3382568 -6.525833 2.3382568 -12.516769l0 -51.350845z" fill-rule="evenodd"/><path fill="#434343" d="m414.17566 130.42784c-3.2399597 0 -6.128418 0.7284851 -8.665344 2.1854706c-2.5369568 1.4467773 -4.5695496 3.3622437 -6.0978394 5.746399l0 -6.831497l-7.3815613 0l0 48.691605l8.252686 0l0 -25.262787c0 -4.432068 0.4432068 -7.82489 1.3296204 -10.178467c0.88638306 -2.3535767 2.3127747 -4.141693 4.279175 -5.364334c1.9765625 -1.222641 4.126343 -1.8339539 6.4493103 -1.8339539c3.0565796 0 5.2572937 0.9169769 6.602173 2.7509308c1.3448792 1.8339691 2.017334 4.5849 2.017334 8.252823l0 31.635788l8.252686 0l0 -28.288818c0 -5.0128174 1.1309204 -8.655258 3.3927917 -10.927338c2.2618408 -2.282257 5.104431 -3.4233856 8.527771 -3.4233856c1.8950806 0 3.5456238 0.4432068 4.9516296 1.3296204c1.4060059 0.8864136 2.3739014 2.0581055 2.903717 3.515091c0.539978 1.4467926 0.80999756 3.8207397 0.80999756 7.121872l0 30.672958l8.206848 0l0 -33.423904c0 -5.5630035 -1.2990417 -9.6792145 -3.8971252 -12.348648c-2.598053 -2.6796265 -6.3117676 -4.0194244 -11.141144 -4.0194244c-6.174225 0 -11.186981 2.842636 -15.038239 8.527908c-0.9475403 -2.689804 -2.5776978 -4.7835846 -4.8904724 -6.281311c-2.3026123 -1.4977417 -5.2572937 -2.2465973 -8.864014 -2.2465973z" fill-rule="evenodd"/><path fill="#434343" d="m470.06476 113.005226l0 67.21459l8.252716 0l0 -67.21459z" fill-rule="evenodd"/><path fill="#434343" d="m487.89975 151.7476l0 8.29866l25.354156 0l0 -8.29866z" fill-rule="evenodd"/><path fill="#434343" d="m532.09753 114.51824l-8.206848 4.9516907l0 12.058281l-6.051941 0l0 6.4188538l6.051941 0l0 28.013718c0 4.9516907 0.33624268 8.201874 1.008667 9.750549c0.6724243 1.5384827 1.8339233 2.7815094 3.484497 3.7290497c1.6505127 0.9475403 3.9735107 1.4213257 6.968933 1.4213257c1.8339233 0 3.9124146 -0.24453735 6.2353516 -0.7335968l-1.1920166 -7.289978c-1.4977417 0.21395874 -2.7050781 0.3209381 -3.6220093 0.3209381c-1.2226562 0 -2.1651 -0.19866943 -2.8273315 -0.5960388c-0.6520996 -0.39735413 -1.1258545 -0.932251 -1.4213257 -1.6047058c-0.28527832 -0.67245483 -0.42791748 -2.1854706 -0.42791748 -4.5390472l0 -28.472214l8.298584 0l0 -6.4188538l-8.298584 0l0 -17.009972z" fill-rule="evenodd"/><path fill="#434343" d="m568.547 137.21349c4.187439 0 7.59552 1.5894318 10.224182 4.7682953c1.7116699 2.0479126 2.7508545 5.1197968 3.1176758 9.215637l-27.18805 0c0.27508545 -4.2486725 1.701477 -7.6414948 4.279175 -10.178467c2.5878296 -2.536972 5.7768555 -3.8054657 9.567017 -3.8054657zm-0.09173584 -6.7856445c-6.7244263 0 -12.195618 2.2618713 -16.413696 6.7856445c-4.2180176 4.523758 -6.3270874 10.881485 -6.3270874 19.073166c0 7.9165955 2.0835571 14.070541 6.2506714 18.461853c4.177307 4.381119 9.826843 6.571686 16.948608 6.571686c5.654602 0 10.300598 -1.375473 13.937866 -4.126404c3.637329 -2.750946 6.128418 -6.6175385 7.4733276 -11.5997925l-8.527832 -1.0545197c-1.2531738 3.4845123 -2.949585 6.0214996 -5.0891724 7.6109314c-2.1395874 1.5894318 -4.722351 2.38414 -7.748352 2.38414c-4.0651855 0 -7.458008 -1.4213257 -10.178345 -4.263962c-2.7202759 -2.842636 -4.2332764 -6.9384766 -4.5389404 -12.287521l36.31189 0c0.030517578 -0.97810364 0.045837402 -1.7116852 0.045837402 -2.2007446c0 -8.038849 -2.0631714 -14.274307 -6.189514 -18.706375c-4.126404 -4.432068 -9.444763 -6.648102 -15.955261 -6.648102z" fill-rule="evenodd"/><path fill="#434343" d="m622.8314 130.42784c-3.2399902 0 -6.128418 0.7284851 -8.665344 2.1854706c-2.5369873 1.4467773 -4.56958 3.3622437 -6.0978394 5.746399l0 -6.831497l-7.381592 0l0 48.691605l8.252686 0l0 -25.262787c0 -4.432068 0.4432373 -7.82489 1.3296509 -10.178467c0.88635254 -2.3535767 2.3127441 -4.141693 4.279175 -5.364334c1.9765625 -1.222641 4.126343 -1.8339539 6.44928 -1.8339539c3.0565796 0 5.257324 0.9169769 6.602173 2.7509308c1.3449097 1.8339691 2.017334 4.5849 2.017334 8.252823l0 31.635788l8.252686 0l0 -28.288818c0 -5.0128174 1.1309204 -8.655258 3.3928223 -10.927338c2.2618408 -2.282257 5.104431 -3.4233856 8.527771 -3.4233856c1.8950806 0 3.5455933 0.4432068 4.951599 1.3296204c1.4060059 0.8864136 2.3739624 2.0581055 2.9037476 3.515091c0.539978 1.4467926 0.80999756 3.8207397 0.80999756 7.121872l0 30.672958l8.206848 0l0 -33.423904c0 -5.5630035 -1.2990723 -9.6792145 -3.8971558 -12.348648c-2.5980225 -2.6796265 -6.3117676 -4.0194244 -11.141113 -4.0194244c-6.1742554 0 -11.187012 2.842636 -15.038269 8.527908c-0.94750977 -2.689804 -2.5776978 -4.7835846 -4.890442 -6.281311c-2.3026123 -1.4977417 -5.257324 -2.2465973 -8.864014 -2.2465973z" fill-rule="evenodd"/><path fill="#434343" d="m699.7649 136.89255c3.5455933 0 6.59198 1.5435791 9.139099 4.6307373c2.557312 3.0871735 3.8359985 7.7332 3.8359985 13.938095c0 6.510544 -1.3092651 11.319595 -3.9276733 14.427139c-2.6082764 3.097351 -5.746338 4.6460266 -9.414185 4.6460266c-3.6067505 0 -6.678589 -1.4977264 -9.215515 -4.4931946c-2.5369873 -2.9954681 -3.80542 -7.6262207 -3.80542 -13.892242c0 -6.2660217 1.3499756 -11.039413 4.0499268 -14.32016c2.710144 -3.2909393 5.822754 -4.9364014 9.337769 -4.9364014zm0.77941895 -6.4647064c-3.178833 0 -5.88385 0.62150574 -8.115173 1.8645172c-2.2312622 1.2328339 -4.2333374 3.0871735 -6.0061035 5.563019l0 -6.3271637l-7.519104 0l0 67.35214l8.252686 0l0 -23.703918c1.4060059 1.7728271 3.1991577 3.2399902 5.3795166 4.4014893c2.1905518 1.1615143 4.661255 1.7422638 7.4121704 1.7422638c3.7595215 0 7.3408203 -1.0596161 10.743774 -3.1788635c3.413147 -2.129425 6.0112305 -5.18602 7.7941895 -9.169785c1.7932129 -3.9939575 2.6898193 -8.482071 2.6898193 -13.464325c0 -4.6460266 -0.80999756 -8.91507 -2.4299927 -12.807144c-1.6199951 -3.9022522 -4.019348 -6.9231873 -7.198181 -9.062805c-3.178833 -2.139618 -6.8466797 -3.2094269 -11.003601 -3.2094269z" fill-rule="evenodd"/><path fill="#434343" d="m730.9418 113.005226l0 67.21459l8.252686 0l0 -67.21459z" fill-rule="evenodd"/><path fill="#434343" d="m783.0713 155.78232l0 3.0260315c0 3.6373444 -0.44317627 6.3882904 -1.3295898 8.252808c-1.161499 2.4147186 -2.9801636 4.319992 -5.4559326 5.715851c-2.47583 1.3856506 -5.3031616 2.078476 -8.481934 2.078476c-3.2094116 0 -5.649536 -0.73358154 -7.3204956 -2.2007446c-1.6607056 -1.4671631 -2.4910889 -3.3011322 -2.4910889 -5.501877c0 -1.4365997 0.38208008 -2.7407532 1.1462402 -3.912445c0.7640991 -1.1818848 1.8491821 -2.0784912 3.255249 -2.689804c1.4060059 -0.6113281 3.805359 -1.1615143 7.198181 -1.6505737c5.9908447 -0.85583496 10.483948 -1.8950806 13.47937 -3.1177216zm-10.499268 -25.354477c-4.187439 0 -7.8706055 0.5756531 -11.049438 1.7269745c-3.178833 1.1411285 -5.6087646 2.776413 -7.289856 4.905838c-1.6811523 2.1192474 -2.8884888 4.905838 -3.6220093 8.359802l8.069275 1.1003723c0.8864136 -3.4539642 2.251648 -5.8584747 4.095764 -7.2135773c1.8543091 -1.3652802 4.722412 -2.0479126 8.604248 -2.0479126c4.1569214 0 7.289856 0.932251 9.398865 2.7967834c1.5588379 1.375473 2.3382568 3.7443237 2.3382568 7.1065826c0 0.30566406 -0.015258789 1.0239716 -0.045837402 2.1549072c-3.1482544 1.1003723 -8.054016 2.0479279 -14.717285 2.842636c-3.2705078 0.39735413 -5.7157593 0.80999756 -7.3357544 1.2379303c-2.2006836 0.61131287 -4.182373 1.5130157 -5.9450073 2.7050781c-1.7524414 1.1920776 -3.173706 2.776413 -4.263855 4.753006c-1.0800171 1.9664154 -1.6199951 4.141693 -1.6199951 6.5258484c0 4.065277 1.4365845 7.4071503 4.3097534 10.025635c2.873169 2.6082916 6.984192 3.912445 12.333191 3.912445c3.2399292 0 6.270996 -0.53489685 9.093262 -1.6047058c2.8323975 -1.069809 5.7768555 -2.903778 8.833435 -5.501877c0.24450684 2.29245 0.79467773 4.29451 1.6505127 6.0062103l8.619507 0c-1.0392456 -1.8645325 -1.7371216 -3.8105621 -2.09375 -5.8381042c-0.3463745 -2.037735 -0.5195923 -6.892624 -0.5195923 -14.564682l0 -11.003754c0 -3.667923 -0.13757324 -6.204895 -0.4126587 -7.6109314c-0.48901367 -2.2618866 -1.3448486 -4.1315002 -2.567505 -5.608856c-1.2225952 -1.4875488 -3.1329346 -2.7203827 -5.731018 -3.6984863c-2.5980835 -0.9781189 -5.975586 -1.4671631 -10.132507 -1.4671631z" fill-rule="evenodd"/><path fill="#434343" d="m813.92725 114.51824l-8.206848 4.9516907l0 12.058281l-6.052002 0l0 6.4188538l6.052002 0l0 28.013718c0 4.9516907 0.33618164 8.201874 1.008667 9.750549c0.6724243 1.5384827 1.8339233 2.7815094 3.484436 3.7290497c1.6505737 0.9475403 3.9735107 1.4213257 6.968933 1.4213257c1.8339844 0 3.9124146 -0.24453735 6.2354126 -0.7335968l-1.1920776 -7.289978c-1.4976807 0.21395874 -2.705017 0.3209381 -3.6220093 0.3209381c-1.2225952 0 -2.165039 -0.19866943 -2.8273315 -0.5960388c-0.6520386 -0.39735413 -1.1257935 -0.932251 -1.4212646 -1.6047058c-0.28527832 -0.67245483 -0.42791748 -2.1854706 -0.42791748 -4.5390472l0 -28.472214l8.298523 0l0 -6.4188538l-8.298523 0l0 -17.009972z" fill-rule="evenodd"/><path fill="#434343" d="m850.37665 137.21349c4.1875 0 7.59552 1.5894318 10.224182 4.7682953c1.7116699 2.0479126 2.7509155 5.1197968 3.1176758 9.215637l-27.18805 0c0.27508545 -4.2486725 1.701477 -7.6414948 4.279175 -10.178467c2.5878906 -2.536972 5.7769165 -3.8054657 9.567017 -3.8054657zm-0.091674805 -6.7856445c-6.7244263 0 -12.195679 2.2618713 -16.413696 6.7856445c-4.2180786 4.523758 -6.3270874 10.881485 -6.3270874 19.073166c0 7.9165955 2.0835571 14.070541 6.2506714 18.461853c4.177307 4.381119 9.826782 6.571686 16.948547 6.571686c5.654663 0 10.300598 -1.375473 13.937927 -4.126404c3.637268 -2.750946 6.128418 -6.6175385 7.4732666 -11.5997925l-8.527771 -1.0545197c-1.2531738 3.4845123 -2.949585 6.0214996 -5.0891724 7.6109314c-2.1395874 1.5894318 -4.722412 2.38414 -7.748352 2.38414c-4.0652466 0 -7.458008 -1.4213257 -10.178345 -4.263962c-2.720337 -2.842636 -4.2333374 -6.9384766 -4.5390015 -12.287521l36.31189 0c0.030578613 -0.97810364 0.045837402 -1.7116852 0.045837402 -2.2007446c0 -8.038849 -2.0631714 -14.274307 -6.189514 -18.706375c-4.126343 -4.432068 -9.444763 -6.648102 -15.9552 -6.648102z" fill-rule="evenodd"/></g></svg>